<?xml version="1.0" standalone="no"?><!DOCTYPE svg PUBLIC "-//W3C//DTD SVG 1.1//EN" "http://www.w3.org/Graphics/SVG/1.1/DTD/svg11.dtd"><svg class="icon" width="48px" height="48.00px" viewBox="0 0 1024 1024" version="1.1" xmlns="http://www.w3.org/2000/svg"><path fill="#cdcdcd" d="M469.333333 85.333333H384v85.333334H298.666667v85.333333H213.333333v85.333333H42.666667v341.333334h170.666666v85.333333h85.333334v85.333333h85.333333v85.333334h85.333333V85.333333zM298.666667 768v-85.333333H213.333333v-85.333334H128v-170.666666h85.333333V341.333333h85.333334V256h85.333333v512H298.666667z m256-341.333333h85.333333v170.666666h-85.333333v-170.666666z m341.333333-256h-85.333333V85.333333h-256v85.333334h256v85.333333h85.333333v512h-85.333333v85.333333h-256v85.333334h256v-85.333334h85.333333v-85.333333h85.333333V256h-85.333333V170.666667z m-85.333333 170.666666h-85.333334V256h-170.666666v85.333333h170.666666v341.333334h-170.666666v85.333333h170.666666v-85.333333h85.333334V341.333333z" /></svg>